<?xml version="1.0" standalone="no"?>
<!DOCTYPE svg PUBLIC "-//W3C//DTD SVG 20010904//EN"
 "http://www.w3.org/TR/2001/REC-SVG-20010904/DTD/svg10.dtd">
<svg version="1.0" xmlns="http://www.w3.org/2000/svg"
 width="1280.000000pt" height="720.000000pt" viewBox="0 0 1280.000000 720.000000"
 preserveAspectRatio="xMidYMid meet">
<metadata>
Created by potrace 1.15, written by Peter Selinger 2001-2017
</metadata>
<g transform="translate(0.000000,720.000000) scale(0.100000,-0.100000)"
fill="#000000" stroke="none">
<path d="M6284 5671 c-102 -62 -119 -193 -36 -275 48 -49 99 -64 160 -47 48
12 107 59 118 93 3 10 10 15 16 12 7 -5 9 -1 5 9 -5 14 -2 15 21 7 l27 -10
-27 23 c-19 15 -28 32 -28 51 0 45 -45 113 -90 136 -50 26 -125 26 -166 1z"/>
<path d="M6159 5403 c-13 -16 -12 -17 4 -4 9 7 17 15 17 17 0 8 -8 3 -21 -13z"/>
<path d="M6109 5363 c-13 -16 -12 -17 4 -4 9 7 17 15 17 17 0 8 -8 3 -21 -13z"/>
<path d="M6059 5323 c-13 -16 -12 -17 4 -4 9 7 17 15 17 17 0 8 -8 3 -21 -13z"/>
<path d="M5969 5253 c-13 -16 -12 -17 4 -4 9 7 17 15 17 17 0 8 -8 3 -21 -13z"/>
<path d="M5919 5213 c-13 -16 -12 -17 4 -4 9 7 17 15 17 17 0 8 -8 3 -21 -13z"/>
<path d="M5869 5173 c-13 -16 -12 -17 4 -4 9 7 17 15 17 17 0 8 -8 3 -21 -13z"/>
<path d="M5819 5133 c-13 -16 -12 -17 4 -4 9 7 17 15 17 17 0 8 -8 3 -21 -13z"/>
<path d="M5729 5063 c-13 -16 -12 -17 4 -4 16 13 21 21 13 21 -2 0 -10 -8 -17
-17z"/>
<path d="M5679 5023 c-13 -16 -12 -17 4 -4 9 7 17 15 17 17 0 8 -8 3 -21 -13z"/>
<path d="M5629 4983 c-13 -16 -12 -17 4 -4 9 7 17 15 17 17 0 8 -8 3 -21 -13z"/>
<path d="M5579 4943 c-13 -16 -12 -17 4 -4 9 7 17 15 17 17 0 8 -8 3 -21 -13z"/>
<path d="M5489 4873 c-13 -16 -12 -17 4 -4 16 13 21 21 13 21 -2 0 -10 -8 -17
-17z"/>
<path d="M5439 4833 c-13 -16 -12 -17 4 -4 9 7 17 15 17 17 0 8 -8 3 -21 -13z"/>
<path d="M5389 4793 c-13 -16 -12 -17 4 -4 9 7 17 15 17 17 0 8 -8 3 -21 -13z"/>
<path d="M5339 4753 c-13 -16 -12 -17 4 -4 16 13 21 21 13 21 -2 0 -10 -8 -17
-17z"/>
<path d="M8965 4649 c-401 -32 -760 -58 -797 -56 -36 1 -64 -1 -61 -5 2 -5 -4
-8 -15 -8 -11 0 -747 -56 -1638 -125 -890 -69 -1622 -125 -1627 -125 -5 0 -3
8 4 18 11 14 10 14 -8 -2 -20 -17 -110 -25 -849 -82 -455 -35 -829 -65 -831
-67 -3 -4 154 -2077 163 -2144 3 -29 10 -43 20 -43 8 0 19 -11 24 -25 8 -22
14 -24 52 -20 24 3 1096 87 2383 185 4037 310 4190 322 4197 329 4 3 3 53 -2
111 -5 58 -14 170 -20 250 -29 391 -141 1790 -146 1828 l-6 42 -57 -1 c-31 -1
-384 -28 -786 -60z m-450 -284 c19 -19 25 -35 25 -70 0 -55 -11 -80 -52 -117
-26 -24 -39 -28 -90 -28 -65 0 -101 17 -122 59 -22 42 -8 88 39 137 41 43 42
44 109 44 58 0 70 -3 91 -25z m-3814 -294 c43 -53 15 -159 -53 -202 -64 -39
-171 -12 -198 51 -19 47 16 125 73 161 46 29 151 23 178 -10z m4365 -242 c52
-13 68 -34 84 -102 14 -65 5 -94 -31 -102 -40 -9 -55 6 -74 71 -18 61 -41 79
-90 70 -43 -8 -49 -27 -47 -131 2 -116 21 -353 33 -403 17 -77 100 -137 137
-100 15 15 15 125 1 188 -5 25 -18 57 -29 72 -34 46 -2 78 80 78 25 0 40 -5
44 -16 11 -28 19 -209 12 -258 -22 -143 -224 -199 -318 -88 -30 36 -41 94 -59
313 -20 242 -1 340 74 384 57 34 114 41 183 24z m-392 -46 c3 -10 11 -83 16
-163 6 -80 15 -197 20 -260 24 -312 24 -295 6 -313 -21 -21 -79 -22 -98 -3 -8
8 -45 101 -83 207 -115 329 -132 345 -120 112 14 -257 13 -334 -6 -346 -9 -5
-27 -7 -41 -4 -25 7 -25 9 -37 149 -7 79 -16 195 -22 258 -5 63 -11 161 -12
218 -2 98 -1 105 22 123 16 13 39 19 71 19 l48 0 42 -117 c24 -65 52 -141 62
-170 11 -29 29 -58 44 -68 l25 -16 -6 58 c-3 32 -7 113 -8 181 -2 112 0 125
17 138 27 19 53 18 60 -3z m-505 -36 c5 -12 12 -63 15 -112 13 -169 27 -350
37 -468 9 -103 8 -122 -6 -143 -17 -27 -65 -33 -83 -11 -12 14 -19 83 -52 547
-11 165 -6 190 45 203 34 8 35 8 44 -16z m-294 -17 c54 -12 71 -37 86 -122 11
-63 11 -78 -5 -132 -9 -34 -19 -71 -22 -83 -4 -13 6 -46 25 -85 23 -48 33 -88
42 -170 15 -132 8 -158 -45 -158 -45 0 -51 12 -65 128 -16 127 -34 169 -77
181 -79 22 -90 -4 -74 -168 10 -98 10 -115 -4 -137 -11 -16 -26 -24 -45 -24
-50 0 -49 -8 -72 300 -32 439 -32 438 19 459 50 19 175 26 237 11z m-411 -37
c4 -17 10 -79 36 -403 27 -337 27 -340 -35 -340 -23 0 -38 6 -44 18 -5 10 -15
88 -21 173 -6 85 -16 217 -22 294 -16 200 -15 217 5 248 21 32 72 38 81 10z
m-213 -114 c29 -353 34 -435 34 -534 l0 -110 -39 -3 c-21 -2 -43 1 -49 7 -6 6
-14 55 -18 109 -4 54 -15 123 -24 154 -14 49 -20 56 -45 62 -43 8 -89 -4 -101
-25 -6 -12 -7 -72 -3 -162 8 -160 4 -171 -58 -165 -40 4 -42 10 -58 238 -6 85
-16 210 -22 277 -17 195 -5 243 63 243 31 0 33 -8 43 -165 6 -94 11 -112 36
-120 10 -3 20 -14 23 -24 6 -24 55 -35 91 -22 l27 11 -7 144 c-6 125 -5 148 9
170 16 24 63 39 80 25 5 -4 13 -54 18 -110z m-696 36 c0 -24 -50 -44 -115 -44
-25 -1 -56 -8 -69 -18 -23 -15 -23 -20 -18 -97 7 -94 12 -113 37 -121 10 -3
20 -15 23 -25 4 -16 14 -20 54 -20 56 0 76 -10 71 -36 -2 -15 -18 -22 -67 -32
-94 -18 -95 -20 -88 -131 l7 -95 42 -39 41 -39 70 7 69 7 -4 -28 c-2 -23 -9
-30 -38 -36 -60 -13 -254 -20 -269 -10 -9 7 -16 47 -22 128 -5 66 -14 178 -19
249 -27 345 -27 344 14 370 25 17 156 34 236 31 38 -1 45 -4 45 -21z m-506
-26 c43 -9 52 -15 67 -47 26 -53 26 -202 0 -260 l-19 -42 33 -64 c28 -56 34
-81 43 -185 9 -96 8 -123 -2 -135 -15 -18 -76 -22 -86 -6 -4 6 -13 57 -20 114
-17 129 -38 177 -83 188 -21 6 -40 5 -54 -3 -20 -11 -21 -15 -14 -154 5 -123
4 -146 -10 -159 -21 -22 -71 -21 -83 2 -5 9 -14 87 -20 172 -6 85 -16 216 -21
290 -5 74 -12 149 -15 167 -6 33 14 95 35 108 34 21 179 29 249 14z m-490 -61
c6 -18 22 -82 36 -143 15 -60 47 -193 71 -295 57 -233 61 -262 41 -279 -9 -7
-30 -11 -48 -9 -29 3 -35 9 -53 53 -31 75 -31 75 -97 75 -66 0 -99 -21 -99
-64 0 -12 -5 -37 -11 -55 -10 -29 -15 -32 -48 -29 -20 2 -35 8 -34 13 1 6 11
130 23 275 27 337 36 425 50 450 12 23 57 38 117 39 38 1 42 -1 52 -31z m-575
-25 c7 -17 -16 -43 -38 -43 -55 -2 -151 -21 -157 -32 -10 -16 -11 -107 -1
-163 5 -27 14 -43 29 -50 12 -5 24 -17 26 -27 4 -14 16 -18 54 -19 26 -1 51
-1 55 0 10 1 21 -39 13 -47 -4 -4 -39 -14 -78 -22 l-72 -15 -3 -98 c-3 -98 -3
-98 28 -127 16 -15 30 -33 30 -39 0 -15 36 -21 105 -19 58 3 60 2 60 -22 0
-30 -26 -37 -186 -46 -109 -6 -117 -6 -127 12 -6 11 -15 89 -21 174 -6 85 -15
218 -21 295 -5 77 -12 152 -16 167 -8 39 12 93 41 108 22 12 130 25 231 29 31
1 44 -3 48 -16z m-430 -200 c-8 -272 -22 -545 -29 -565 -4 -9 -16 -19 -28 -22
-38 -10 -104 -6 -115 7 -6 7 -20 59 -31 115 -53 261 -73 271 -81 36 -6 -182
-7 -184 -102 -184 -53 0 -59 2 -68 24 -20 53 -130 666 -124 691 7 28 31 45 63
45 25 0 32 -23 71 -235 43 -237 46 -250 54 -263 11 -19 26 -4 27 26 l1 27 8
-25 c4 -14 9 82 11 213 4 237 4 239 28 258 30 24 78 25 85 2 7 -26 24 -113 46
-243 41 -236 49 -263 71 -229 7 12 9 12 9 0 0 -8 3 -11 7 -7 5 4 10 116 13
248 5 222 6 241 24 254 11 8 30 14 42 14 l23 0 -5 -187z"/>
<path d="M7717 3663 c-10 -10 -8 -188 2 -216 5 -13 19 -27 30 -30 12 -3 21
-12 21 -20 0 -23 38 -31 64 -13 31 20 38 73 19 156 -19 89 -22 98 -39 115 -15
15 -85 21 -97 8z"/>
<path d="M5884 3504 c-7 -28 2 -181 12 -207 3 -8 14 -17 25 -20 10 -3 19 -12
19 -20 0 -21 32 -30 63 -18 36 14 44 77 22 177 -20 90 -40 114 -95 114 -34 0
-40 -3 -46 -26z"/>
<path d="M5456 3391 c-10 -16 -26 -167 -26 -250 0 -71 1 -75 35 -107 41 -41
82 -46 90 -11 10 37 -61 344 -85 370 -4 5 -11 4 -14 -2z"/>
<path d="M5249 4683 c-13 -16 -12 -17 4 -4 9 7 17 15 17 17 0 8 -8 3 -21 -13z"/>
<path d="M5199 4643 c-13 -16 -12 -17 4 -4 16 13 21 21 13 21 -2 0 -10 -8 -17
-17z"/>
<path d="M5149 4603 c-13 -16 -12 -17 4 -4 9 7 17 15 17 17 0 8 -8 3 -21 -13z"/>
<path d="M5099 4563 c-13 -16 -12 -17 4 -4 16 13 21 21 13 21 -2 0 -10 -8 -17
-17z"/>
<path d="M5009 4493 c-13 -16 -12 -17 4 -4 16 13 21 21 13 21 -2 0 -10 -8 -17
-17z"/>
<path d="M4959 4453 c-13 -16 -12 -17 4 -4 16 13 21 21 13 21 -2 0 -10 -8 -17
-17z"/>
<path d="M4909 4413 c-13 -16 -12 -17 4 -4 9 7 17 15 17 17 0 8 -8 3 -21 -13z"/>
<path d="M4859 4373 c-13 -16 -12 -17 4 -4 16 13 21 21 13 21 -2 0 -10 -8 -17
-17z"/>
</g>
</svg>
